<svg width="32" height="32" xmlns="http://www.w3.org/2000/svg" style="background-color: #000205; image-rendering: pixelated;">
  <g fill="#001a33">
    <rect x="6" y="8" width="20" height="16"/>
    <rect x="4" y="10" width="2" height="12"/>
    <rect x="26" y="10" width="2" height="12"/>
    <rect x="2" y="12" width="2" height="8"/>
    <rect x="28" y="12" width="2" height="8"/>
    <rect x="8" y="6" width="16" height="2"/>
    <rect x="10" y="4" width="12" height="2"/>
    <rect x="6" y="24" width="20" height="2"/>
    <rect x="8" y="26" width="16" height="2"/>
    <rect x="6" y="28" width="6" height="2"/>
    <rect x="20" y="28" width="6" height="2"/>
  </g>

  <g fill="#00d4ff">
    <rect x="14" y="6" width="4" height="2"/>
    <rect x="4" y="16" width="2" height="4"/>
    <rect x="26" y="16" width="2" height="4"/>
    <rect x="6" y="20" width="3" height="2"/>
    <rect x="23" y="20" width="3" height="2"/>
    <rect x="12" y="24" width="8" height="2"/>
  </g>

  <g fill="#ffffff">
    <rect x="7" y="10" width="8" height="8"/>
    <rect x="17" y="10" width="8" height="8"/>
    <rect x="6" y="11" width="1" height="6"/>
    <rect x="15" y="11" width="1" height="6"/>
    <rect x="16" y="11" width="1" height="6"/>
    <rect x="25" y="11" width="1" height="6"/>
  </g>
  <g fill="#000a14">
    <rect x="9" y="12" width="4" height="4"/>
    <rect x="19" y="12" width="4" height="4"/>
  </g>
  <g fill="#ffffff">
    <rect x="9" y="12" width="2" height="2"/>
    <rect x="19" y="12" width="2" height="2"/>
  </g>
   <g fill="#ffffff">
    <rect x="12" y="15" width="1" height="1"/>
    <rect x="22" y="15" width="1" height="1"/>
  </g>

  <g fill="#00d4ff" opacity="0.15">
     <rect x="10" y="3" width="12" height="1"/>
     <rect x="1" y="12" width="1" height="8"/>
     <rect x="30" y="12" width="1" height="8"/>
  </g>
</svg>