<svg width="272" height="16" xmlns="http://www.w3.org/2000/svg" style="background-color: #000205; image-rendering: pixelated;">
  <g transform="translate(0, 0)">
    <rect x="2" y="2" width="12" height="12" fill="#001a33"/>
    <rect x="1" y="4" width="14" height="8" fill="#001a33"/>
    <rect x="4" y="1" width="8" height="14" fill="#001a33"/>
    <rect x="0" y="0" width="4" height="4" fill="#001a33"/>
    <rect x="12" y="12" width="4" height="4" fill="#001a33"/>
    <rect x="12" y="0" width="4" height="3" fill="#001a33"/>
    <rect x="4" y="4" width="8" height="8" fill="#00d4ff"/>
    <rect x="2" y="6" width="12" height="4" fill="#00d4ff"/>
    <rect x="1" y="1" width="2" height="2" fill="#00d4ff"/>
    <rect x="13" y="13" width="2" height="2" fill="#00d4ff"/>
    <rect x="6" y="6" width="4" height="4" fill="#ffffff"/>
  </g>

  <g transform="translate(16, 0)">
    <rect x="1" y="10" width="14" height="6" fill="#001a33"/>
    <rect x="3" y="0" width="10" height="12" fill="#001a33"/>
    <rect x="0" y="4" width="4" height="6" fill="#001a33"/>
    <rect x="12" y="2" width="4" height="5" fill="#001a33"/>
    <rect x="6" y="0" width="4" height="16" fill="#00d4ff"/>
    <rect x="4" y="8" width="8" height="4" fill="#00d4ff"/>
    <rect x="1" y="5" width="2" height="3" fill="#00d4ff"/>
    <rect x="13" y="3" width="2" height="2" fill="#00d4ff"/>
    <rect x="7" y="9" width="3" height="2" fill="#ffffff"/>
  </g>

  <g transform="translate(32, 0)">
    <rect x="0" y="1" width="6" height="14" fill="#001a33"/>
    <rect x="4" y="3" width="12" height="10" fill="#001a33"/>
    <rect x="2" y="0" width="5" height="4" fill="#001a33"/>
    <rect x="2" y="12" width="5" height="4" fill="#001a33"/>
    <rect x="0" y="6" width="16" height="4" fill="#00d4ff"/>
    <rect x="8" y="5" width="6" height="6" fill="#00d4ff"/>
    <rect x="3" y="1" width="2" height="2" fill="#00d4ff"/>
    <rect x="3" y="13" width="2" height="2" fill="#00d4ff"/>
    <rect x="10" y="7" width="3" height="2" fill="#ffffff"/>
  </g>

  <g transform="translate(48, 0)">
    <rect x="3" y="0" width="13" height="13" fill="#001a33"/>
    <rect x="8" y="3" width="8" height="13" fill="#001a33"/>
    <rect x="0" y="8" width="6" height="8" fill="#001a33"/>
    <rect x="1" y="10" width="4" height="4" fill="#001a33"/>
    <rect x="6" y="0" width="6" height="8" fill="#00d4ff"/>
    <rect x="8" y="6" width="8" height="6" fill="#00d4ff"/>
    <rect x="2" y="11" width="3" height="3" fill="#00d4ff"/>
    <rect x="7" y="5" width="6" height="6" fill="#ffffff"/>
  </g>

  <g transform="translate(64, 0)">
    <rect x="1" y="0" width="14" height="6" fill="#001a33"/>
    <rect x="3" y="4" width="10" height="12" fill="#001a33"/>
    <rect x="0" y="8" width="4" height="5" fill="#001a33"/>
    <rect x="12" y="6" width="4" height="7" fill="#001a33"/>
    <rect x="6" y="0" width="4" height="16" fill="#00d4ff"/>
    <rect x="5" y="4" width="6" height="4" fill="#00d4ff"/>
    <rect x="1" y="9" width="2" height="2" fill="#00d4ff"/>
    <rect x="13" y="8" width="2" height="3" fill="#00d4ff"/>
    <rect x="7" y="5" width="3" height="2" fill="#ffffff"/>
  </g>

  <g transform="translate(80, 0)">
    <rect x="3" y="0" width="10" height="16" fill="#001a33"/>
    <rect x="0" y="3" width="5" height="6" fill="#001a33"/>
    <rect x="11" y="8" width="5" height="6" fill="#001a33"/>
    <rect x="6" y="0" width="4" height="16" fill="#00d4ff"/>
    <rect x="2" y="5" width="12" height="2" fill="#00d4ff"/>
    <rect x="2" y="11" width="12" height="2" fill="#00d4ff"/>
    <rect x="1" y="4" width="2" height="3" fill="#00d4ff"/>
    <rect x="13" y="10" width="2" height="3" fill="#00d4ff"/>
  </g>

  <g transform="translate(96, 0)">
    <rect x="3" y="3" width="13" height="13" fill="#001a33"/>
    <rect x="8" y="0" width="8" height="13" fill="#001a33"/>
    <rect x="0" y="0" width="6" height="6" fill="#001a33"/>
    <rect x="2" y="2" width="4" height="4" fill="#001a33"/>
    <rect x="6" y="8" width="6" height="8" fill="#00d4ff"/>
    <rect x="8" y="6" width="8" height="6" fill="#00d4ff"/>
    <rect x="1" y="1" width="3" height="3" fill="#00d4ff"/>
    <rect x="7" y="7" width="6" height="6" fill="#ffffff"/>
  </g>

  <g transform="translate(112, 0)">
    <rect x="3" y="0" width="10" height="16" fill="#001a33"/>
    <rect x="8" y="3" width="8" height="10" fill="#001a33"/>
    <rect x="0" y="5" width="5" height="7" fill="#001a33"/>
    <rect x="6" y="0" width="4" height="16" fill="#00d4ff"/>
    <rect x="8" y="6" width="8" height="4" fill="#00d4ff"/>
    <rect x="1" y="7" width="3" height="3" fill="#00d4ff"/>
    <rect x="5" y="5" width="8" height="6" fill="#ffffff"/>
  </g>

  <g transform="translate(128, 0)">
    <rect x="10" y="1" width="6" height="14" fill="#001a33"/>
    <rect x="0" y="3" width="12" height="10" fill="#001a33"/>
    <rect x="8" y="0" width="6" height="5" fill="#001a33"/>
    <rect x="8" y="11" width="6" height="5" fill="#001a33"/>
    <rect x="0" y="6" width="16" height="4" fill="#00d4ff"/>
    <rect x="4" y="5" width="6" height="6" fill="#00d4ff"/>
    <rect x="10" y="2" width="3" height="2" fill="#00d4ff"/>
    <rect x="10" y="13" width="3" height="2" fill="#00d4ff"/>
    <rect x="5" y="7" width="3" height="2" fill="#ffffff"/>
  </g>

  <g transform="translate(144, 0)">
    <rect x="0" y="0" width="13" height="13" fill="#001a33"/>
    <rect x="0" y="3" width="16" height="10" fill="#001a33"/>
    <rect x="10" y="10" width="6" height="6" fill="#001a33"/>
    <rect x="4" y="0" width="6" height="8" fill="#00d4ff"/>
    <rect x="0" y="6" width="8" height="6" fill="#00d4ff"/>
    <rect x="12" y="12" width="3" height="3" fill="#00d4ff"/>
    <rect x="3" y="5" width="6" height="6" fill="#ffffff"/>
  </g>

  <g transform="translate(160, 0)">
    <rect x="0" y="3" width="16" height="10" fill="#001a33"/>
    <rect x="4" y="0" width="5" height="16" fill="#001a33"/>
    <rect x="11" y="1" width="4" height="6" fill="#001a33"/>
    <rect x="10" y="10" width="5" height="6" fill="#001a33"/>
    <rect x="0" y="6" width="16" height="4" fill="#00d4ff"/>
    <rect x="5" y="2" width="3" height="12" fill="#00d4ff"/>
    <rect x="12" y="2" width="2" height="3" fill="#00d4ff"/>
    <rect x="11" y="12" width="3" height="3" fill="#00d4ff"/>
  </g>

  <g transform="translate(176, 0)">
    <rect x="0" y="3" width="16" height="10" fill="#001a33"/>
    <rect x="3" y="0" width="10" height="8" fill="#001a33"/>
    <rect x="5" y="11" width="7" height="5" fill="#001a33"/>
    <rect x="0" y="6" width="16" height="4" fill="#00d4ff"/>
    <rect x="6" y="0" width="4" height="8" fill="#00d4ff"/>
    <rect x="7" y="12" width="3" height="3" fill="#00d4ff"/>
    <rect x="5" y="4" width="6" height="8" fill="#ffffff"/>
  </g>

  <g transform="translate(192, 0)">
    <rect x="0" y="3" width="13" height="13" fill="#001a33"/>
    <rect x="0" y="0" width="16" height="10" fill="#001a33"/>
    <rect x="10" y="0" width="6" height="6" fill="#001a33"/>
    <rect x="4" y="8" width="6" height="8" fill="#00d4ff"/>
    <rect x="0" y="6" width="8" height="6" fill="#00d4ff"/>
    <rect x="12" y="1" width="3" height="3" fill="#00d4ff"/>
    <rect x="3" y="7" width="6" height="6" fill="#ffffff"/>
  </g>

  <g transform="translate(208, 0)">
    <rect x="3" y="0" width="10" height="16" fill="#001a33"/>
    <rect x="0" y="3" width="8" height="10" fill="#001a33"/>
    <rect x="11" y="5" width="5" height="7" fill="#001a33"/>
    <rect x="6" y="0" width="4" height="16" fill="#00d4ff"/>
    <rect x="0" y="6" width="8" height="4" fill="#00d4ff"/>
    <rect x="12" y="7" width="3" height="3" fill="#00d4ff"/>
    <rect x="3" y="5" width="8" height="6" fill="#ffffff"/>
  </g>

  <g transform="translate(224, 0)">
    <rect x="0" y="3" width="16" height="10" fill="#001a33"/>
    <rect x="3" y="8" width="10" height="8" fill="#001a33"/>
    <rect x="5" y="0" width="7" height="5" fill="#001a33"/>
    <rect x="0" y="6" width="16" height="4" fill="#00d4ff"/>
    <rect x="6" y="8" width="4" height="8" fill="#00d4ff"/>
    <rect x="7" y="1" width="3" height="3" fill="#00d4ff"/>
    <rect x="5" y="5" width="6" height="8" fill="#ffffff"/>
  </g>

  <g transform="translate(240, 0)">
    <rect x="0" y="0" width="16" height="16" fill="#001a33"/>
    <rect x="4" y="0" width="8" height="16" fill="#00d4ff"/>
    <rect x="0" y="4" width="16" height="8" fill="#00d4ff"/>
    <rect x="4" y="4" width="8" height="8" fill="#ffffff"/>
    <rect x="0" y="0" width="1" height="1" fill="#000205"/>
    <rect x="15" y="0" width="1" height="1" fill="#000205"/>
    <rect x="0" y="15" width="1" height="1" fill="#000205"/>
    <rect x="15" y="15" width="1" height="1" fill="#000205"/>
  </g>

  <g transform="translate(256, 0)">
    <rect x="0" y="0" width="16" height="16" fill="#001a33"/>
    <rect x="1" y="1" width="14" height="14" fill="#00d4ff"/>
    <rect x="3" y="3" width="4" height="4" fill="#ffffff"/>
    <rect x="9" y="3" width="4" height="3" fill="#ffffff"/>
    <rect x="3" y="10" width="3" height="3" fill="#ffffff"/>
    <rect x="9" y="9" width="5" height="5" fill="#ffffff"/>
  </g>
</svg>