<svg width="48" height="16" xmlns="http://www.w3.org/2000/svg">
  <!-- Mycelium Base tile (0,0) - Glowing cyan/blue organic network -->
  <rect x="0" y="0" width="16" height="16" fill="#0a1a2a"/>
  <circle cx="8" cy="8" r="6" fill="#00ccff" opacity="0.3"/>
  <circle cx="8" cy="8" r="3" fill="#00ffff" opacity="0.6"/>
  <circle cx="4" cy="4" r="1.5" fill="#00ffff"/>
  <circle cx="12" cy="4" r="1.5" fill="#00ffff"/>
  <circle cx="4" cy="12" r="1.5" fill="#00ffff"/>
  <circle cx="12" cy="12" r="1.5" fill="#00ffff"/>

  <!-- Mycelium Growth tile (1,0) - Spreading animation frame -->
  <rect x="16" y="0" width="16" height="16" fill="#0a1a2a"/>
  <circle cx="24" cy="8" r="7" fill="#00ccff" opacity="0.2"/>
  <circle cx="24" cy="8" r="4" fill="#00ffff" opacity="0.4"/>
  <circle cx="20" cy="6" r="1" fill="#00ffff"/>
  <circle cx="28" cy="6" r="1" fill="#00ffff"/>
  <circle cx="20" cy="10" r="1" fill="#00ffff"/>
  <circle cx="28" cy="10" r="1" fill="#00ffff"/>
  <circle cx="24" cy="4" r="1" fill="#00ffff"/>
  <circle cx="24" cy="12" r="1" fill="#00ffff"/>

  <!-- Mycelium Dense tile (2,0) - Fully matured -->
  <rect x="32" y="0" width="16" height="16" fill="#0a1a2a"/>
  <circle cx="40" cy="8" r="7" fill="#00ccff" opacity="0.5"/>
  <circle cx="40" cy="8" r="4" fill="#00ffff" opacity="0.8"/>
  <circle cx="36" cy="4" r="2" fill="#00ffff" opacity="0.8"/>
  <circle cx="44" cy="4" r="2" fill="#00ffff" opacity="0.8"/>
  <circle cx="36" cy="12" r="2" fill="#00ffff" opacity="0.8"/>
  <circle cx="44" cy="12" r="2" fill="#00ffff" opacity="0.8"/>
  <circle cx="40" cy="8" r="2" fill="#ffffff"/>
</svg>
